<?xml version="1.0" encoding="UTF-8"?>
<svg version="1.1" xmlns="http://www.w3.org/2000/svg" width="533" height="106">
<path d="M0 0 C175.89 0 351.78 0 533 0 C533 34.98 533 69.96 533 106 C357.11 106 181.22 106 0 106 C0 71.02 0 36.04 0 0 Z " fill="#FDFDFD" transform="translate(0,0)"/>
<path d="M0 0 C4.02933193 2.85411012 6.1239743 6.19779766 7.3203125 10.97265625 C7.97909603 14.96039908 8.20425105 18.98008041 8.44140625 23.01171875 C8.68178549 26.12138676 9.12944417 29.12831143 9.6875 32.1953125 C6.3875 32.1953125 3.0875 32.1953125 -0.3125 32.1953125 C-0.6425 30.8753125 -0.9725 29.5553125 -1.3125 28.1953125 C-2.075625 28.8346875 -2.83875 29.4740625 -3.625 30.1328125 C-7.84190136 33.36903912 -11.09132781 33.62327743 -16.3125 33.1953125 C-22.12898294 31.29627423 -25.39033081 28.68899057 -28.3125 23.1953125 C-30.20299005 17.52384236 -30.06974357 11.38733336 -28.125 5.7578125 C-21.42585957 -3.71338603 -9.92040403 -5.72023297 0 0 Z " fill="#060606" transform="translate(391.3125,39.8046875)"/>
<path d="M0 0 C5.39383443 3.14724673 8.65073668 7.10846005 10.64453125 13.08984375 C11.4782752 19.12853205 10.65380152 23.35858331 7.14453125 28.36328125 C3.82195656 32.18770315 -0.2834342 34.78025887 -5.37109375 35.29296875 C-11.43687284 35.42022286 -16.47495882 34.84030808 -21.0859375 30.4375 C-25.66592473 25.29181363 -26.66595581 21.43885324 -26.56640625 14.58984375 C-26.14664648 9.61491315 -24.07767525 6.53629626 -20.41796875 3.33984375 C-14.14967422 -1.26543387 -7.56148588 -2.92176818 0 0 Z " fill="#060606" transform="translate(239.35546875,37.91015625)"/>
<path d="M0 0 C6.24678517 4.16452345 6.24678517 4.16452345 7.11328125 7.796875 C7.41626177 11.33758848 7.39211921 13.74250283 5.19140625 16.6328125 C0.41653176 20.88399108 -3.27845098 21.89600722 -9.625 21.8125 C-10.51703125 21.80347656 -11.4090625 21.79445313 -12.328125 21.78515625 C-13.00359375 21.77355469 -13.6790625 21.76195313 -14.375 21.75 C-11.07539859 23.3998007 -7.38372116 23.13258361 -3.75 23.3125 C-2.94820313 23.35568359 -2.14640625 23.39886719 -1.3203125 23.44335938 C0.6612511 23.54951457 2.64310271 23.65026855 4.625 23.75 C4.625 26.72 4.625 29.69 4.625 32.75 C-1.95885325 35.52214874 -8.90075069 35.8204733 -15.6875 33.5625 C-20.52395814 31.47580233 -23.35515291 28.33252134 -26.1875 23.9375 C-28.25171614 18.39670931 -28.14675419 13.90512489 -25.8125 8.5625 C-20.60096667 -0.89271046 -9.81717747 -3.63599166 0 0 Z " fill="#090909" transform="translate(487.375,38.25)"/>
<path d="M0 0 C0 2.97 0 5.94 0 9 C-6.27 8.67 -12.54 8.34 -19 8 C-19 8.66 -19 9.32 -19 10 C-18.28714844 10.10957031 -17.57429687 10.21914063 -16.83984375 10.33203125 C-11.1467954 11.27448744 -6.11381616 12.27988502 -1 15 C1.67976626 19.01964938 1.80526656 22.27632299 1 27 C-2.09137375 31.2733696 -5.01061237 32.64197723 -10 34 C-13.4375 34.265625 -13.4375 34.265625 -17 34.25 C-18.7634375 34.25773437 -18.7634375 34.25773437 -20.5625 34.265625 C-24.01937245 33.99850304 -26.77517473 33.23880483 -30 32 C-30 29.03 -30 26.06 -30 23 C-23.07 23.33 -16.14 23.66 -9 24 C-9.33 23.34 -9.66 22.68 -10 22 C-13.21156158 21.17442908 -16.44460515 20.5884565 -19.703125 19.9765625 C-23.30500449 18.90965507 -25.28728002 17.56421341 -28 15 C-29.61051555 11.7789689 -29.60168779 8.48310374 -29 5 C-21.81803422 -4.17695627 -10.28388244 -3.82656091 0 0 Z " fill="#0A0A0A" transform="translate(188,39)"/>
<path d="M0 0 C4.66743313 2.64959335 6.94520519 6.33561558 8.625 11.375 C8.70678114 13.07516844 8.73249501 14.77836297 8.72265625 16.48046875 C8.71943359 17.46337891 8.71621094 18.44628906 8.71289062 19.45898438 C8.70032227 20.99522461 8.70032227 20.99522461 8.6875 22.5625 C8.68298828 23.59826172 8.67847656 24.63402344 8.67382812 25.70117188 C8.66204026 28.2591392 8.64410482 30.81707686 8.625 33.375 C5.325 33.375 2.025 33.375 -1.375 33.375 C-1.42398437 32.13363281 -1.47296875 30.89226562 -1.5234375 29.61328125 C-1.59849799 27.97133306 -1.67404439 26.32940703 -1.75 24.6875 C-1.7809375 23.87087891 -1.811875 23.05425781 -1.84375 22.21289062 C-2.02812037 15.25087761 -2.02812037 15.25087761 -5.375 9.375 C-9.40583011 9.05039739 -9.40583011 9.05039739 -13.375 9.375 C-15.53249784 12.61124676 -15.65860488 13.71894066 -15.7890625 17.48046875 C-15.84707031 18.95483398 -15.84707031 18.95483398 -15.90625 20.45898438 C-15.9371875 21.48314453 -15.968125 22.50730469 -16 23.5625 C-16.05800781 25.11614258 -16.05800781 25.11614258 -16.1171875 26.70117188 C-16.21147869 29.25882027 -16.29432918 31.81688578 -16.375 34.375 C-20.005 34.375 -23.635 34.375 -27.375 34.375 C-27.48339074 30.68670398 -27.56251031 27.00162349 -27.625 23.3125 C-27.65851563 22.27416016 -27.69203125 21.23582031 -27.7265625 20.16601562 C-27.82169062 12.67467586 -26.95227602 8.27589268 -21.77734375 2.6328125 C-15.23965873 -2.42299725 -7.66892771 -3.46756394 0 0 Z " fill="#090909" transform="translate(283.375,38.625)"/>
<path d="M0 0 C0 3.3 0 6.6 0 10 C-1.8871875 10.12375 -1.8871875 10.12375 -3.8125 10.25 C-7.23836633 10.67492542 -7.23836633 10.67492542 -9.9375 12.8125 C-11.20193042 15.22491543 -11.20193042 15.22491543 -12 19 C-9.03 19 -6.06 19 -3 19 C-3 21.97 -3 24.94 -3 28 C-5.64 28 -8.28 28 -11 28 C-11 35.92 -11 43.84 -11 52 C-14.63 52 -18.26 52 -22 52 C-22.12422629 46.44995151 -22.21463317 40.90072418 -22.2746582 35.34960938 C-22.29969777 33.46404917 -22.33373999 31.57858502 -22.37719727 29.69335938 C-22.43831786 26.97241436 -22.46631493 24.25275973 -22.48828125 21.53125 C-22.51408768 20.69758911 -22.5398941 19.86392822 -22.56648254 19.00500488 C-22.56937895 12.86770334 -20.95275472 8.72514007 -17 4 C-11.69111703 -0.55825531 -6.81494533 -0.37342166 0 0 Z " fill="#060606" transform="translate(429,20)"/>
<path d="M0 0 C3.3 0 6.6 0 10 0 C11.33964547 3.26837611 12.6719259 6.53942548 14 9.8125 C14.3815625 10.74126953 14.763125 11.67003906 15.15625 12.62695312 C15.5171875 13.51962891 15.878125 14.41230469 16.25 15.33203125 C16.58515625 16.15421143 16.9203125 16.9763916 17.265625 17.82348633 C18 20 18 20 18 23 C18.66 23 19.32 23 20 23 C20.12632813 22.29746094 20.25265625 21.59492187 20.3828125 20.87109375 C21.93789624 13.63700168 24.40295163 6.47468707 28 0 C31.3 0 34.6 0 38 0 C36.00980506 6.95632399 33.68043879 13.62054358 30.9375 20.3125 C30.4105957 21.6128418 30.4105957 21.6128418 29.87304688 22.93945312 C29.22201079 24.54550622 28.56918462 26.15083596 27.91381836 27.75512695 C26.93242996 30.16599158 25.96671441 32.58321398 25 35 C21.04 35 17.08 35 13 35 C11.14190899 30.50036349 9.29069085 25.99798507 7.44580078 21.49291992 C6.81715251 19.96056948 6.18662904 18.42898696 5.55419922 16.89819336 C4.64577716 14.69844294 3.74412219 12.49602414 2.84375 10.29296875 C2.55939087 9.60849167 2.27503174 8.92401459 1.98205566 8.21879578 C0.80160095 5.31408881 0 3.16794537 0 0 Z " fill="#090909" transform="translate(98,37)"/>
<path d="M0 0 C1.546875 0.00966797 1.546875 0.00966797 3.125 0.01953125 C6 0.1875 6 0.1875 10 1.1875 C10 4.8175 10 8.4475 10 12.1875 C8.68 11.8575 7.36 11.5275 6 11.1875 C1.37636345 10.73550989 -2.59756593 10.37213136 -6.6875 12.75 C-8.57978934 16.26425163 -8.03228311 18.40246192 -7 22.1875 C-5.81681872 23.96972172 -5.81681872 23.96972172 -4 25.1875 C-1.62482675 25.58761499 -1.62482675 25.58761499 0.9375 25.4375 C1.79214844 25.42203125 2.64679688 25.4065625 3.52734375 25.390625 C6.28372568 25.23152625 6.28372568 25.23152625 10 24.1875 C10 27.4875 10 30.7875 10 34.1875 C4.14778752 37.11360624 -2.0869667 37.29829655 -8.421875 35.5 C-13.10616158 33.38678801 -15.55092252 30.79176566 -18 26.1875 C-19.93795159 20.37364524 -20.02055692 14.26641224 -17.3125 8.75 C-12.11512965 2.99075177 -7.82990279 -0.10766116 0 0 Z " fill="#060606" transform="translate(317,36.8125)"/>
<path d="M0 0 C3.3 0 6.6 0 10 0 C10 3.3 10 6.6 10 10 C13.3 10 16.6 10 20 10 C20 12.97 20 15.94 20 19 C16.7 19 13.4 19 10 19 C10.16353274 25.63049735 10.16353274 25.63049735 12.625 31.5625 C15.71399937 33.43215751 18.4316664 33.7255128 22 34 C22 37.3 22 40.6 22 44 C15.65306965 44.45335217 11.27316178 43.69572022 6 40 C2.58088569 36.68244354 0.06094161 33.6987638 -0.11352539 28.83544922 C-0.11336695 27.49185158 -0.10771152 26.14824753 -0.09765625 24.8046875 C-0.0962413 24.09724396 -0.09482635 23.38980042 -0.09336853 22.66091919 C-0.087766 20.39890331 -0.07521318 18.13698602 -0.0625 15.875 C-0.05748532 14.34244935 -0.05292236 12.80989714 -0.04882812 11.27734375 C-0.03779577 7.51819112 -0.02052952 3.75911228 0 0 Z " fill="#030303" transform="translate(435,29)"/>
<path d="M0 0 C0 3.3 0 6.6 0 10 C-3.02734375 10.68359375 -3.02734375 10.68359375 -6.0546875 11.3671875 C-8.20719964 11.90474428 -8.20719964 11.90474428 -10 14 C-10.37051993 16.3245339 -10.37051993 16.3245339 -10.4140625 19.0078125 C-10.47207031 20.48701172 -10.47207031 20.48701172 -10.53125 21.99609375 C-10.57765625 23.54490234 -10.57765625 23.54490234 -10.625 25.125 C-10.68300781 26.68541016 -10.68300781 26.68541016 -10.7421875 28.27734375 C-10.83664329 30.85126402 -10.91941771 33.42560805 -11 36 C-14.63 36 -18.26 36 -22 36 C-22.10864696 32.49915355 -22.18762825 29.00172828 -22.25 25.5 C-22.28351563 24.51773438 -22.31703125 23.53546875 -22.3515625 22.5234375 C-22.43691155 16.12225898 -21.72283753 11.31880966 -18 6 C-12.38574905 0.5297042 -7.53490124 -0.25542038 0 0 Z " fill="#0C0C0C" transform="translate(357,37)"/>
<path d="M0 0 C0 3.3 0 6.6 0 10 C-3.02734375 10.68359375 -3.02734375 10.68359375 -6.0546875 11.3671875 C-8.20719964 11.90474428 -8.20719964 11.90474428 -10 14 C-10.37004294 16.22658154 -10.37004294 16.22658154 -10.4140625 18.7890625 C-10.47207031 20.20058594 -10.47207031 20.20058594 -10.53125 21.640625 C-10.57765625 23.11789063 -10.57765625 23.11789063 -10.625 24.625 C-10.68300781 26.11386719 -10.68300781 26.11386719 -10.7421875 27.6328125 C-10.83662661 30.08822942 -10.91940881 32.54408957 -11 35 C-14.63 35 -18.26 35 -22 35 C-22.10845173 31.47833127 -22.18753575 27.96003767 -22.25 24.4375 C-22.28351563 23.44685547 -22.31703125 22.45621094 -22.3515625 21.43554688 C-22.43694799 15.0102887 -21.81215306 11.22690091 -18 6 C-12.28981206 0.58264221 -7.59242044 -0.25737018 0 0 Z " fill="#080808" transform="translate(523,37)"/>
<path d="M0 0 C3.3 0 6.6 0 10 0 C10 11.55 10 23.1 10 35 C6.7 35 3.4 35 0 35 C0 23.45 0 11.9 0 0 Z " fill="#020202" transform="translate(196,37)"/>
<path d="M0 0 C3.3 0 6.6 0 10 0 C10 11.22 10 22.44 10 34 C6.7 34 3.4 34 0 34 C0 22.78 0 11.56 0 0 Z " fill="#000000" transform="translate(141,38)"/>
<path d="M0 0 C0.61739698 11.31894458 -3.71385492 18.78606132 -10 28 C-8.96552734 28.23783203 -8.96552734 28.23783203 -7.91015625 28.48046875 C0.48401121 30.56461732 8.24584064 32.67600365 13.0625 40.3125 C13.73069728 41.52965397 14.38522715 42.75500774 15 44 C13.68 44.66 12.36 45.32 11 46 C7 41.25 7 41.25 7 39 C-0.5800352 35.04212614 -8.6401209 32.64456638 -17 31 C-16.62488281 30.46632813 -16.24976563 29.93265625 -15.86328125 29.3828125 C-10.30397948 21.28891722 -5.49508653 14.08946841 -5.3359375 4.03125 C-5.16964844 3.02578125 -5.16964844 3.02578125 -5 2 C-2 0 -2 0 0 0 Z " fill="#1C1C1C" transform="translate(32,52)"/>
<path d="M0 0 C1.32 0.33 2.64 0.66 4 1 C4.10957031 1.79664062 4.21914062 2.59328125 4.33203125 3.4140625 C5.92774847 14.07812394 8.93131763 19.82212757 17 27 C17.66 27.33 18.32 27.66 19 28 C19 28.66 19 29.32 19 30 C18.0821875 30.29132812 17.164375 30.58265625 16.21875 30.8828125 C6.25162878 34.21216602 -1.61883803 37.58296656 -7 47 C-8.32 46.67 -9.64 46.34 -11 46 C-9.34484812 39.93110977 -4.85247343 35.85776475 0.28515625 32.51171875 C4.0707609 30.36928139 7.89318446 28.45725713 12 27 C11.20335937 26.39865234 11.20335937 26.39865234 10.390625 25.78515625 C5.1353487 21.55600141 1.62945837 17.65362168 0 11 C-0.28694404 7.30320425 -0.24880076 3.69745578 0 0 Z " fill="#131313" transform="translate(65,20)"/>
<path d="M0 0 C9.14888926 1.99803329 15.45671747 6.60405541 21 14 C21.55816406 14.74121094 22.11632812 15.48242188 22.69140625 16.24609375 C23.12324219 16.82488281 23.55507813 17.40367188 24 18 C24.35191406 17.34773438 24.70382813 16.69546875 25.06640625 16.0234375 C28.97567889 9.10310629 32.72333371 3.88173317 40.125 0.625 C42.85944436 0.03055557 45.21309712 -0.16393546 48 0 C48 1.32 48 2.64 48 4 C47.27554688 4.23074219 46.55109375 4.46148437 45.8046875 4.69921875 C33.79262999 8.75128615 29.92963129 14.00035853 24 25 C23.07960938 23.84564453 23.07960938 23.84564453 22.140625 22.66796875 C20.69600496 20.86746604 19.23185026 19.08248781 17.75 17.3125 C16 15 16 15 16 13 C15.443125 12.7525 14.88625 12.505 14.3125 12.25 C12 11 12 11 9.6875 9 C6.43935262 6.58277404 3.91252314 5.92059368 0 5 C0 3.35 0 1.7 0 0 Z " fill="#1A1A1A" transform="translate(37,67)"/>
<path d="M0 0 C0.05607422 1.32451172 0.05607422 1.32451172 0.11328125 2.67578125 C0.70505367 17.17461579 0.70505367 17.17461579 8 29 C7.75 31.75 7.75 31.75 7 34 C4 33 4 33 2.4296875 30.3828125 C1.91664062 29.30773437 1.40359375 28.23265625 0.875 27.125 C0.35679688 26.05507813 -0.16140625 24.98515625 -0.6953125 23.8828125 C-2.72074328 19.40745946 -3.11091619 16.20253473 -3.0625 11.3125 C-3.05347656 10.13300781 -3.04445313 8.95351563 -3.03515625 7.73828125 C-3.02355469 6.83464844 -3.01195313 5.93101563 -3 5 C-3.71542969 5.433125 -4.43085937 5.86625 -5.16796875 6.3125 C-12.9010997 10.63424977 -19.16598517 12.19316564 -28 11 C-30.0165634 10.38525088 -32.02290968 9.73181851 -34 9 C-33.67 7.68 -33.34 6.36 -33 5 C-32.31035156 5.15597656 -31.62070312 5.31195312 -30.91015625 5.47265625 C-20.89310791 7.28782608 -13.16521531 6.41627408 -4.328125 1.3125 C-2 0 -2 0 0 0 Z " fill="#121212" transform="translate(51,17)"/>
<path d="M0 0 C1.68416016 0.433125 1.68416016 0.433125 3.40234375 0.875 C13.79286591 3.48133379 22.53617423 5.56215345 33 2 C33.66 3.32 34.32 4.64 35 6 C30.07030444 7.95166181 25.84410737 8.34945352 20.625 8.3125 C19.49880249 8.31056641 19.49880249 8.31056641 18.34985352 8.30859375 C12.98967313 8.21530224 8.82559429 7.46413326 4 5 C4.33 5.99 4.66 6.98 5 8 C5.78099116 16.79850797 6.23132786 24.13911671 0.703125 31.49609375 C-1.19539468 33.17253888 -2.52202674 33.61753021 -5 34 C-5.495 32.515 -5.495 32.515 -6 31 C-4.81740274 29.52974395 -3.62633032 28.06085071 -2.32421875 26.6953125 C2.76851842 20.1754071 1.34177983 11.53491495 0.5 3.8125 C0.335 2.554375 0.17 1.29625 0 0 Z " fill="#131313" transform="translate(9,37)"/>
<path d="M0 0 C1.90625 0.41015625 1.90625 0.41015625 4.40625 1.91015625 C6.52778384 5.44604598 6.697263 8.38917348 5.90625 12.41015625 C4.40625 14.91015625 4.40625 14.91015625 1.90625 16.41015625 C-0.90292861 17.01459017 -3.29132073 17.07056479 -6.09375 16.41015625 C-9.09368115 13.86021477 -9.94855459 12.28132869 -10.59375 8.41015625 C-9.51108588 1.91417151 -6.3325703 -0.46076538 0 0 Z " fill="#F6F6F6" transform="translate(382.09375,46.58984375)"/>
<path d="M0 0 C1.90625 0.41015625 1.90625 0.41015625 4.40625 1.91015625 C6.52522146 5.44177535 6.70466448 8.39339062 5.90625 12.41015625 C4.34375 14.91015625 4.34375 14.91015625 1.90625 16.41015625 C-2.00826456 16.96937262 -4.1319729 17.04290434 -7.46875 14.84765625 C-9.64601285 11.58176197 -10.09375 9.33031759 -10.09375 5.41015625 C-7.71389134 0.54696681 -5.12937433 -0.3732194 0 0 Z " fill="#F4F4F4" transform="translate(233.09375,46.58984375)"/>
<path d="M0 0 C1.875 1.125 1.875 1.125 3 3 C3.39365568 6.14924548 3.52854531 8.11909116 1.875 10.875 C-0.88090884 12.52854531 -2.85075452 12.39365568 -6 12 C-7.875 10.875 -7.875 10.875 -9 9 C-9.39365568 5.85075452 -9.52854531 3.88090884 -7.875 1.125 C-5.11909116 -0.52854531 -3.14924548 -0.39365568 0 0 Z " fill="#0D0D0D" transform="translate(149,22)"/>
<path d="M0 0 C1.9375 1.625 1.9375 1.625 3 4 C2.77962372 7.67293796 2.63033454 9.36966546 0 12 C-3.10347254 12.33015665 -5.15781176 12.50531294 -7.875 10.875 C-9.52854531 8.11909116 -9.39365568 6.14924548 -9 3 C-6.79848461 -0.66919231 -4.00961374 -0.58473534 0 0 Z " fill="#0D0D0D" transform="translate(204,22)"/>
<path d="M0 0 C0 1.32 0 2.64 0 4 C-1.08667969 4.34611328 -1.08667969 4.34611328 -2.1953125 4.69921875 C-11.76174874 7.82954191 -11.76174874 7.82954191 -18.125 15.25 C-19 17 -19 17 -21.125 17.75 C-22.053125 17.87375 -22.053125 17.87375 -23 18 C-21.65689491 12.03064405 -18.49706902 7.99550556 -14 4 C-9.61490593 1.31647234 -5.23921839 -0.67602818 0 0 Z " fill="#111111" transform="translate(85,67)"/>
<path d="M0 0 C0.66 0 1.32 0 2 0 C4.45976554 4.91953108 3.77762037 12.60903596 3 18 C1.57748436 21.5864075 -0.09586705 24.43557068 -3 27 C-5.203125 27.72265625 -5.203125 27.72265625 -7 28 C-7.33 27.01 -7.66 26.02 -8 25 C-6.81740274 23.52974395 -5.62633032 22.06085071 -4.32421875 20.6953125 C-0.98355537 16.41847501 -0.67157492 11.97641945 -0.375 6.6875 C-0.26285156 4.80611328 -0.26285156 4.80611328 -0.1484375 2.88671875 C-0.09945313 1.93410156 -0.05046875 0.98148438 0 0 Z " fill="#0D0D0D" transform="translate(11,43)"/>
<path d="M0 0 C0 1.32 0 2.64 0 4 C-0.33 4.33 -0.66 4.66 -1 5 C-2.69141656 4.91036938 -4.37959602 4.75422324 -6.0625 4.5625 C-7.44115234 4.40974609 -7.44115234 4.40974609 -8.84765625 4.25390625 C-9.55792969 4.17011719 -10.26820313 4.08632813 -11 4 C-7.65667474 -0.27945633 -5.29105716 -0.4070044 0 0 Z " fill="#DCDCDC" transform="translate(483,47)"/>
</svg>
